<?xml version="1.0" encoding="utf-8"?>
<!-- Generator: Adobe Illustrator 18.0.0, SVG Export Plug-In . SVG Version: 6.00 Build 0)  -->
<!DOCTYPE svg PUBLIC "-//W3C//DTD SVG 1.0//EN" "http://www.w3.org/TR/2001/REC-SVG-20010904/DTD/svg10.dtd">
<svg version="1.0" id="Layer_1" xmlns="http://www.w3.org/2000/svg" xmlns:xlink="http://www.w3.org/1999/xlink" x="0px" y="0px"
	 width="30px" height="30px" viewBox="0 0 30 30" enable-background="new 0 0 30 30" xml:space="preserve">
<g>
	<path fill="#3E3E3F" d="M14.226,8.862l3.186,12.276h-2.268l-0.702-2.898H11.22l-0.72,2.898H8.214L11.49,8.862H14.226z
		 M13.974,16.44l-1.134-5.31l-1.152,5.31H13.974z"/>
	<path fill="#3E3E3F" d="M19.554,8.898h2.232v12.24h-2.232V8.898z"/>
</g>
<g>
	<path fill="#3E3E3F" d="M15,1.5c7.444,0,13.5,6.056,13.5,13.5S22.444,28.5,15,28.5S1.5,22.444,1.5,15S7.556,1.5,15,1.5 M15,0
		C6.716,0,0,6.716,0,15s6.716,15,15,15s15-6.716,15-15S23.284,0,15,0L15,0z"/>
</g>
</svg>
